<?xml version="1.0" encoding="utf-8"?>
<!-- Generator: Adobe Illustrator 25.3.1, SVG Export Plug-In . SVG Version: 6.00 Build 0)  -->
<svg version="1.1" id="레이어_1" focusable="false"
	 xmlns="http://www.w3.org/2000/svg" xmlns:xlink="http://www.w3.org/1999/xlink" x="0px" y="0px" viewBox="0 0 155 219"
	 style="enable-background:new 0 0 155 219;" xml:space="preserve">
<style type="text/css">
	.st0{fill:#FFFFFF;}
</style>
<g>
	<path class="st0" d="M30.9,0h-2.8C12.6,0,0,12.6,0,28.1v162.8C0,206.4,12.6,219,28.1,219h2.8c15.5,0,28.1-12.6,28.1-28.1V28.1
		C59,12.6,46.4,0,30.9,0z"/>
	<path class="st0" d="M126.9,0h-2.8C108.6,0,96,12.6,96,28.1v162.8c0,15.5,12.6,28.1,28.1,28.1h2.8c15.5,0,28.1-12.6,28.1-28.1V28.1
		C155,12.6,142.4,0,126.9,0z"/>
</g>
</svg>
